<svg xmlns="http://www.w3.org/2000/svg" width="32" height="32" viewBox="0 0 32 32">
  <defs>
    <linearGradient id="favicon-gradient" x1="0%" y1="0%" x2="100%" y2="100%">
      <stop offset="0%" stop-color="#2C3E50" />
      <stop offset="100%" stop-color="#1A252F" />
    </linearGradient>
  </defs>
  
  <!-- Background -->
  <circle cx="16" cy="16" r="16" fill="url(#favicon-gradient)" />
  
  <!-- Car silhouette (simplified) -->
  <path d="M7,18 C8,16 10,15 13,15 L19,15 C22,15 24,16 25,18 L25,20 C25,21 24,21 23,21 L9,21 C8,21 7,21 7,20 Z" fill="#E74C3C" />
  
  <!-- Wheels -->
  <circle cx="10" cy="21" r="2" fill="#3498DB" />
  <circle cx="22" cy="21" r="2" fill="#3498DB" />
  
  <!-- Wrench -->
  <path d="M16,7 L18,5 L21,8 L19,10 Z" stroke="#E74C3C" stroke-width="1.5" fill="none" />
  <path d="M16,7 L13,10 L16,13 L19,10 Z" fill="#E74C3C" />
</svg>