<svg xmlns="http://www.w3.org/2000/svg" width="600" height="400" viewBox="0 0 600 400">
  <defs>
    <linearGradient id="bg-gradient" x1="0%" y1="0%" x2="100%" y2="100%">
      <stop offset="0%" stop-color="#f5f5f5" />
      <stop offset="100%" stop-color="#e0e0e0" />
    </linearGradient>
  </defs>
  
  <!-- Background -->
  <rect width="600" height="400" fill="url(#bg-gradient)" />
  
  <!-- Oil can illustration -->
  <g transform="translate(200, 100)">
    <!-- Oil can body -->
    <path d="M50,200 L150,200 L170,50 C170,40 160,30 150,30 L50,30 C40,30 30,40 30,50 L50,200 Z" fill="#E74C3C" stroke="#2C3E50" stroke-width="4" />
    
    <!-- Oil can top -->
    <rect x="40" y="10" width="120" height="30" rx="5" fill="#2C3E50" />
    
    <!-- Oil can spout -->
    <path d="M170,100 L220,80 L220,120 L170,140 Z" fill="#E74C3C" stroke="#2C3E50" stroke-width="4" />
    
    <!-- Oil drops -->
    <g fill="#3498DB">
      <circle cx="240" cy="110" r="10" />
      <path d="M240,130 C240,130 230,150 240,170 C250,150 240,130 240,130 Z" />
      <path d="M260,150 C260,150 250,170 260,190 C270,170 260,150 260,150 Z" />
      <path d="M220,170 C220,170 210,190 220,210 C230,190 220,170 220,170 Z" />
    </g>
  </g>
  
  <!-- Text label -->
  <text x="300" y="350" font-family="Arial, sans-serif" font-size="24" text-anchor="middle" fill="#2C3E50">Öljynvaihto</text>
</svg>