<svg xmlns="http://www.w3.org/2000/svg" width="200" height="200" viewBox="0 0 200 200">
  <defs>
    <linearGradient id="bg-gradient" x1="0%" y1="0%" x2="100%" y2="100%">
      <stop offset="0%" stop-color="#3498DB" />
      <stop offset="100%" stop-color="#2980B9" />
    </linearGradient>
  </defs>
  
  <!-- Background -->
  <circle cx="100" cy="100" r="100" fill="url(#bg-gradient)" />
  
  <!-- Person silhouette -->
  <g>
    <!-- Body -->
    <path d="M100,180 C60,180 60,130 60,130 L60,110 C60,110 70,90 100,90 C130,90 140,110 140,110 L140,130 C140,130 140,180 100,180 Z" fill="#ecf0f1" />
    
    <!-- Head -->
    <circle cx="100" cy="70" r="35" fill="#f5d76e" />
    
    <!-- Face features -->
    <g fill="#2C3E50">
      <!-- Eyes -->
      <circle cx="85" cy="65" r="3" />
      <circle cx="115" cy="65" r="3" />
      
      <!-- Mouth -->
      <path d="M85,85 C95,95 105,95 115,85" fill="none" stroke="#2C3E50" stroke-width="2" />
    </g>
    
    <!-- Hair -->
    <path d="M65,70 C65,45 80,35 100,35 C120,35 135,45 135,70 C135,70 135,60 120,50 C120,50 115,55 100,55 C85,55 80,50 80,50 C65,60 65,70 65,70 Z" fill="#2C3E50" />
  </g>
</svg>